<svg version="1.2" xmlns="http://www.w3.org/2000/svg" viewBox="0 0 650 650" width="650" height="650">
	<title>5TecFoodLogo</title>
	<style>
		.s0 { fill: #00bf62 } 
		.s1 { fill: #c1ff72 } 
	</style>
	<path id="5" class="s0" aria-label="5"  d="m148.1 96.1v201.6h129.6v45.6h-129.6v81.7h191.2c23.9 0 40.9-16.9 40.9-40.9v-127.3c0-23.9-17-40.9-40.9-40.9h-88.3v-37.1h111.3l16-41.8v-40.9z"/>
	<path id="FOod" class="s1" aria-label="FOod"  d="m92.7 393.6v-31.3h-25.4v31.3h-16.5v-31.3l-12.9-5h-12.6v68.1h101.7v-31.8zm-41.8-88h50.7v12.6h-50.7zm76.2-19c0-7.6-5.3-12.8-12.7-12.8h-76.5c-7.4 0-12.6 5.2-12.6 12.8v50.7c0 7.6 5.2 12.8 12.6 12.8h76.5c7.4 0 12.7-5.2 12.7-12.8zm-76.2-68.9h50.7v12.7h-50.7zm76.2-19.1c0-7.6-5.3-12.8-12.7-12.8h-76.5c-7.4 0-12.6 5.2-12.6 12.8v50.8c0 7.5 5.2 12.7 12.6 12.7h76.5c7.4 0 12.7-5.2 12.7-12.7zm-76.2-56.2v-12.8h50.7v12.8zm76.2-31.8c0-7.4-5.2-12.7-12.6-12.7h-76.5c-7.4 0-12.7 5.3-12.7 12.7v63.5h101.8z"/>
	<path id="TEC" class="s1" aria-label="TEC"  d="m416 341.8v76.2h31.9v-76.2h15.2l5.1-12.9v-12.7h-71.2v25.6zm127.5 76.2v-25.4h-36.4v-14h31.3v-25.5h-31.3v-11.3h31.3l5.1-12.9v-12.7h-68.1v101.8zm21.6-101.8c-7.6 0-12.8 5.2-12.8 12.7v76.4c0 7.5 5.2 12.7 12.8 12.7h55.2v-25.4h-36.2v-50.8h31.3l4.9-12.9v-12.7z"/>
	<path id="Delivery" class="s0" aria-label="Delivery"  d="m54.9 477.8h12.8v50.8h-12.8zm31.9 76.1c7.4 0 12.6-5.2 12.6-12.6v-76.5c0-7.4-5.2-12.6-12.6-12.6h-63.6v101.7zm92.4 0v-25.4h-36.4v-14h31.3v-25.4h-31.3v-11.3h31.3l5.1-13v-12.6h-68.1v101.7zm8.8 0h63.6v-25.4h-31.9v-76.3h-31.7zm102.6 0v-101.8h-31.7v101.8zm23.4 0h47.9l16.1-93.5v-8.3h-31.7l-6.5 76.3h-3.7l-6.5-76.3h-31.7v8.3zm139.3 0v-25.5h-36.4v-13.9h31.3v-25.5h-31.3v-11.3h31.3l5.1-13v-12.6h-68.1v101.8zm53.3-76.2v19h-12.7v-19zm-44.5-25.6v101.8h31.9v-31.7h6.4l8.5 31.7h31.2v-12.7l-10.1-25c4.8-1.3 8.5-6.7 8.5-11.5v-40c0-7.4-5.3-12.6-12.7-12.6zm107.2 74v27.8h31.7v-27.8l24.8-61.4v-12.6h-31.7l-7.8 39.5h-2.3l-7.7-39.5h-31.9v12.6z"/>
</svg>